<svg width="2601" height="298" xmlns="http://www.w3.org/2000/svg" xmlns:xlink="http://www.w3.org/1999/xlink" xml:space="preserve" overflow="hidden"><defs><clipPath id="clip0"><rect x="1563" y="659" width="2601" height="298"/></clipPath></defs><g clip-path="url(#clip0)" transform="translate(-1563 -659)"><rect x="1580" y="668" width="2584" height="289" fill="#D9D9D9"/><text font-family="Verdana,Verdana_MSFontService,sans-serif" font-weight="400" font-size="83" transform="matrix(1 0 0 1 1613.15 767)">Prepare</text><text font-family="Verdana,Verdana_MSFontService,sans-serif" font-weight="400" font-size="83" transform="matrix(1 0 0 1 1961.48 767)">Test</text><text font-family="Verdana,Verdana_MSFontService,sans-serif" font-weight="400" font-size="83" transform="matrix(1 0 0 1 2157.71 767)">Unit</text><text font-family="Verdana,Verdana_MSFontService,sans-serif" font-weight="400" font-size="83" transform="matrix(1 0 0 1 2325.58 767)">s</text><path d="M1724 813 2201 813 2201 910.499 2181.5 930 1724 930Z" fill="#0070C0" fill-rule="evenodd"/><path d="M2181.5 930 2185.4 914.4 2201 910.499Z" fill="#005A9A" fill-rule="evenodd"/><text fill="#FFFFFF" font-family="Verdana,Verdana_MSFontService,sans-serif" font-weight="400" font-size="64" transform="matrix(1 0 0 1 1756.77 894)">.</text><text fill="#FFFFFF" font-family="Verdana,Verdana_MSFontService,sans-serif" font-weight="400" font-size="64" transform="matrix(1 0 0 1 1780.26 894)">vtsoproj</text><path d="M2417 758.667C2417 746.701 2426.7 737 2438.67 737L3259.33 737C3271.3 737 3281 746.701 3281 758.667L3281 845.333C3281 857.299 3271.3 867 3259.33 867L2438.67 867C2426.7 867 2417 857.299 2417 845.333Z" fill="#B70032" fill-rule="evenodd"/><text fill="#FFFFFF" font-family="Verdana,Verdana_MSFontService,sans-serif" font-weight="400" font-size="64" transform="matrix(1 0 0 1 2523.15 821)">TestUnitBuildCLI.exe</text><rect x="3392" y="692" width="608" height="122" fill="#848B8E"/><text fill="#FFFFFF" font-family="Verdana,Verdana_MSFontService,sans-serif" font-weight="400" font-size="64" transform="matrix(1 0 0 1 3575.78 779)">.</text><text fill="#FFFFFF" font-family="Verdana,Verdana_MSFontService,sans-serif" font-weight="400" font-size="64" transform="matrix(1 0 0 1 3599.27 779)">vtuexe</text><rect x="3447" y="747" width="608" height="122" fill="#848B8E"/><text fill="#FFFFFF" font-family="Verdana,Verdana_MSFontService,sans-serif" font-weight="400" font-size="64" transform="matrix(1 0 0 1 3630.78 834)">.</text><text fill="#FFFFFF" font-family="Verdana,Verdana_MSFontService,sans-serif" font-weight="400" font-size="64" transform="matrix(1 0 0 1 3654.27 834)">vtuexe</text><rect x="3502" y="802" width="608" height="122" fill="#848B8E"/><text fill="#FFFFFF" font-family="Verdana,Verdana_MSFontService,sans-serif" font-weight="400" font-size="64" transform="matrix(1 0 0 1 3685.78 889)">.</text><text fill="#FFFFFF" font-family="Verdana,Verdana_MSFontService,sans-serif" font-weight="400" font-size="64" transform="matrix(1 0 0 1 3709.27 889)">vtuexe</text><path d="M3295 774 3383 774 3383 750 3431 798 3383 846 3383 822 3295 822Z" fill="#848B8E" fill-rule="evenodd"/><path d="M2249 822 2337 822 2337 798 2385 846 2337 894 2337 870 2249 870Z" fill="#848B8E" fill-rule="evenodd"/></g></svg>