<svg width="3952" height="424" xmlns="http://www.w3.org/2000/svg" xmlns:xlink="http://www.w3.org/1999/xlink" xml:space="preserve" overflow="hidden"><defs><clipPath id="clip0"><rect x="215" y="1039" width="3952" height="424"/></clipPath></defs><g clip-path="url(#clip0)" transform="translate(-215 -1039)"><rect x="232" y="1048" width="3935" height="399" fill="#D9D9D9"/><text font-family="Verdana,Verdana_MSFontService,sans-serif" font-weight="400" font-size="83" transform="matrix(1 0 0 1 264.995 1146)">Build</text><text font-family="Verdana,Verdana_MSFontService,sans-serif" font-weight="400" font-size="83" transform="matrix(1 0 0 1 500.464 1146)">Simulation</text><path d="M2265 1254 2353 1254 2353 1230 2401 1278 2353 1326 2353 1302 2265 1302Z" fill="#848B8E" fill-rule="evenodd"/><path d="M657 1218 1461 1218 1461 1315.5 1441.5 1335 657 1335Z" fill="#0070C0" fill-rule="evenodd"/><path d="M1441.5 1335 1445.4 1319.4 1461 1315.5Z" fill="#005A9A" fill-rule="evenodd"/><text fill="#FFFFFF" font-family="Verdana,Verdana_MSFontService,sans-serif" font-weight="700" font-size="64" transform="matrix(1 0 0 1 690.201 1298)">.venvironment.yaml</text><rect x="3436" y="1075" width="608" height="122" fill="#848B8E"/><text fill="#FFFFFF" font-family="Verdana,Verdana_MSFontService,sans-serif" font-weight="400" font-size="64" transform="matrix(1 0 0 1 3505.84 1162)">.</text><text fill="#FFFFFF" font-family="Verdana,Verdana_MSFontService,sans-serif" font-weight="400" font-size="64" transform="matrix(1 0 0 1 3529.33 1162)">venvironment</text><path d="M2419 1097.5C2419 1085.63 2428.63 1076 2440.5 1076L3261.5 1076C3273.37 1076 3283 1085.63 3283 1097.5L3283 1183.5C3283 1195.37 3273.37 1205 3261.5 1205L2440.5 1205C2428.63 1205 2419 1195.37 2419 1183.5Z" fill="#B70032" fill-rule="evenodd"/><text fill="#FFFFFF" font-family="Verdana,Verdana_MSFontService,sans-serif" font-weight="400" font-size="64" transform="matrix(1 0 0 1 2464.39 1160)">venvironment</text><text fill="#FFFFFF" font-family="Verdana,Verdana_MSFontService,sans-serif" font-weight="400" font-size="64" transform="matrix(1 0 0 1 2908.24 1160)">-</text><text fill="#FFFFFF" font-family="Verdana,Verdana_MSFontService,sans-serif" font-weight="400" font-size="64" transform="matrix(1 0 0 1 2937.46 1160)">make.exe</text><path d="M2419 1273.67C2419 1261.7 2428.7 1252 2440.67 1252L3261.33 1252C3273.3 1252 3283 1261.7 3283 1273.67L3283 1360.33C3283 1372.3 3273.3 1382 3261.33 1382L2440.67 1382C2428.7 1382 2419 1372.3 2419 1360.33Z" fill="#B70032" fill-rule="evenodd"/><text fill="#FFFFFF" font-family="Verdana,Verdana_MSFontService,sans-serif" font-weight="400" font-size="64" transform="matrix(1 0 0 1 2549.79 1336)">test</text><text fill="#FFFFFF" font-family="Verdana,Verdana_MSFontService,sans-serif" font-weight="400" font-size="64" transform="matrix(1 0 0 1 2670.56 1336)">-</text><text fill="#FFFFFF" font-family="Verdana,Verdana_MSFontService,sans-serif" font-weight="400" font-size="64" transform="matrix(1 0 0 1 2699.78 1336)">unit</text><text fill="#FFFFFF" font-family="Verdana,Verdana_MSFontService,sans-serif" font-weight="400" font-size="64" transform="matrix(1 0 0 1 2822.84 1336)">-</text><text fill="#FFFFFF" font-family="Verdana,Verdana_MSFontService,sans-serif" font-weight="400" font-size="64" transform="matrix(1 0 0 1 2852.06 1336)">make.exe</text><path d="M3315 1254 3403 1254 3403 1230 3451 1278 3403 1326 3403 1302 3315 1302Z" fill="#848B8E" fill-rule="evenodd"/><rect x="3480" y="1209" width="393" height="132" fill="#848B8E"/><text fill="#FFFFFF" font-family="Verdana,Verdana_MSFontService,sans-serif" font-weight="400" font-size="64" transform="matrix(1 0 0 1 3522.49 1301)">.</text><text fill="#FFFFFF" font-family="Verdana,Verdana_MSFontService,sans-serif" font-weight="400" font-size="64" transform="matrix(1 0 0 1 3545.98 1301)">vtestunit</text><rect x="3535" y="1264" width="393" height="132" fill="#848B8E"/><text fill="#FFFFFF" font-family="Verdana,Verdana_MSFontService,sans-serif" font-weight="400" font-size="64" transform="matrix(1 0 0 1 3577.49 1356)">.</text><text fill="#FFFFFF" font-family="Verdana,Verdana_MSFontService,sans-serif" font-weight="400" font-size="64" transform="matrix(1 0 0 1 3600.98 1356)">vtestunit</text><rect x="3590" y="1319" width="393" height="132" fill="#848B8E"/><text fill="#FFFFFF" font-family="Verdana,Verdana_MSFontService,sans-serif" font-weight="400" font-size="64" transform="matrix(1 0 0 1 3632.49 1411)">.</text><text fill="#FFFFFF" font-family="Verdana,Verdana_MSFontService,sans-serif" font-weight="400" font-size="64" transform="matrix(1 0 0 1 3655.98 1411)">vtestunit</text></g></svg>