<svg width="2934" height="486" xmlns="http://www.w3.org/2000/svg" xmlns:xlink="http://www.w3.org/1999/xlink" xml:space="preserve" overflow="hidden"><defs><clipPath id="clip0"><rect x="219" y="98" width="2934" height="486"/></clipPath></defs><g clip-path="url(#clip0)" transform="translate(-219 -98)"><rect x="236" y="107" width="2917" height="477" fill="#D9D9D9"/><text font-family="Verdana,Verdana_MSFontService,sans-serif" font-weight="400" font-size="83" transform="matrix(1 0 0 1 269.129 206)">Build</text><text font-family="Verdana,Verdana_MSFontService,sans-serif" font-weight="400" font-size="83" transform="matrix(1 0 0 1 504.598 206)">System </text><text font-family="Verdana,Verdana_MSFontService,sans-serif" font-weight="400" font-size="83" transform="matrix(1 0 0 1 843.765 206)">Under</text><text font-family="Verdana,Verdana_MSFontService,sans-serif" font-weight="400" font-size="83" transform="matrix(1 0 0 1 1121.06 206)">Test</text><rect x="2509" y="165" width="608" height="352" fill="#848B8E"/><text fill="#FFFFFF" font-family="Verdana,Verdana_MSFontService,sans-serif" font-weight="400" font-size="64" transform="matrix(1 0 0 1 2697.42 289)">ECU.dll</text><text fill="#FFFFFF" font-family="Verdana,Verdana_MSFontService,sans-serif" font-weight="400" font-size="64" transform="matrix(1 0 0 1 2617.21 366)">ECU.vCODM</text><text fill="#FFFFFF" font-family="Verdana,Verdana_MSFontService,sans-serif" font-weight="400" font-size="64" transform="matrix(1 0 0 1 2597.16 443)">ECU.vmodule</text><path d="M375 244 780 244 780 341.5 760.5 361 375 361Z" fill="#0070C0" fill-rule="evenodd"/><path d="M760.5 361 764.4 345.4 780 341.5Z" fill="#005A9A" fill-rule="evenodd"/><text fill="#FFFFFF" font-family="Verdana,Verdana_MSFontService,sans-serif" font-weight="400" font-size="64" transform="matrix(1 0 0 1 407.934 324)">ECUC</text><path d="M375 392 780 392 780 489.499 760.5 509 375 509Z" fill="#0070C0" fill-rule="evenodd"/><path d="M760.5 509 764.4 493.399 780 489.499Z" fill="#005A9A" fill-rule="evenodd"/><text fill="#FFFFFF" font-family="Verdana,Verdana_MSFontService,sans-serif" font-weight="400" font-size="64" transform="matrix(1 0 0 1 408.361 472)">Appl .c/.h</text><path d="M818 242 1223 242 1223 339.5 1203.5 359 818 359Z" fill="#0070C0" fill-rule="evenodd"/><path d="M1203.5 359 1207.4 343.4 1223 339.5Z" fill="#005A9A" fill-rule="evenodd"/><text fill="#FFFFFF" font-family="Verdana,Verdana_MSFontService,sans-serif" font-weight="700" font-size="64" transform="matrix(1 0 0 1 851.339 323)">.</text><text fill="#FFFFFF" font-family="Verdana,Verdana_MSFontService,sans-serif" font-weight="700" font-size="64" transform="matrix(1 0 0 1 874.255 323)">vttmake</text><path d="M1309 317 1397 317 1397 293 1445 341 1397 389 1397 365 1309 365Z" fill="#848B8E" fill-rule="evenodd"/><path d="M1463 149.667C1463 137.701 1472.7 128 1484.67 128L2305.33 128C2317.3 128 2327 137.701 2327 149.667L2327 236.333C2327 248.299 2317.3 258 2305.33 258L1484.67 258C1472.7 258 1463 248.299 1463 236.333Z" fill="#B70032" fill-rule="evenodd"/><text fill="#FFFFFF" font-family="Verdana,Verdana_MSFontService,sans-serif" font-weight="400" font-size="64" transform="matrix(1 0 0 1 1581.71 212)">DaVinci</text><text fill="#FFFFFF" font-family="Verdana,Verdana_MSFontService,sans-serif" font-weight="400" font-size="64" transform="matrix(1 0 0 1 1845.25 212)">Team &amp; </text><text fill="#FFFFFF" font-family="Verdana,Verdana_MSFontService,sans-serif" font-weight="400" font-size="64" transform="matrix(1 0 0 1 2115.1 212)">Cfg</text><path d="M1463 297.667C1463 285.701 1472.7 276 1484.67 276L2305.33 276C2317.3 276 2327 285.701 2327 297.667L2327 384.333C2327 396.299 2317.3 406 2305.33 406L1484.67 406C1472.7 406 1463 396.299 1463 384.333Z" fill="#B70032" fill-rule="evenodd"/><text fill="#FFFFFF" font-family="Verdana,Verdana_MSFontService,sans-serif" font-weight="400" font-size="64" transform="matrix(1 0 0 1 1644.73 360)">vVIRTUALtarget</text><path d="M1463 445.667C1463 433.701 1472.7 424 1484.67 424L2305.33 424C2317.3 424 2327 433.701 2327 445.667L2327 532.333C2327 544.299 2317.3 554 2305.33 554L1484.67 554C1472.7 554 1463 544.299 1463 532.333Z" fill="#7F7F7F" fill-rule="evenodd"/><text fill="#FFFFFF" font-family="Verdana,Verdana_MSFontService,sans-serif" font-weight="400" font-size="73" transform="matrix(1 0 0 1 1737.83 511)">Compiler</text><path d="M2359 317 2447 317 2447 293 2495 341 2447 389 2447 365 2359 365Z" fill="#848B8E" fill-rule="evenodd"/></g></svg>