<svg width="2052" height="449" xmlns="http://www.w3.org/2000/svg" xmlns:xlink="http://www.w3.org/1999/xlink" xml:space="preserve" overflow="hidden"><defs><clipPath id="clip0"><rect x="223" y="1544" width="2052" height="449"/></clipPath></defs><g clip-path="url(#clip0)" transform="translate(-223 -1544)"><rect x="240" y="1553" width="1925" height="330" fill="#D9D9D9"/><text font-family="Verdana,Verdana_MSFontService,sans-serif" font-weight="400" font-size="83" transform="matrix(1 0 0 1 273.354 1651)">Run Simulation</text><rect x="1460" y="1614" width="608" height="209" fill="#848B8E"/><text fill="#FFFFFF" font-family="Verdana,Verdana_MSFontService,sans-serif" font-weight="400" font-size="64" transform="matrix(1 0 0 1 1573.86 1744)">.</text><text fill="#FFFFFF" font-family="Verdana,Verdana_MSFontService,sans-serif" font-weight="400" font-size="64" transform="matrix(1 0 0 1 1597.35 1744)">vtestreport</text><path d="M415 1674.67C415 1662.7 424.701 1653 436.667 1653L1257.33 1653C1269.3 1653 1279 1662.7 1279 1674.67L1279 1761.33C1279 1773.3 1269.3 1783 1257.33 1783L436.667 1783C424.701 1783 415 1773.3 415 1761.33Z" fill="#B70032" fill-rule="evenodd"/><text fill="#FFFFFF" font-family="Verdana,Verdana_MSFontService,sans-serif" font-weight="400" font-size="64" transform="matrix(1 0 0 1 569.793 1744)">canoe4sw</text><text fill="#FFFFFF" font-family="Verdana,Verdana_MSFontService,sans-serif" font-weight="400" font-size="64" transform="matrix(1 0 0 1 885.424 1744)">-</text><text fill="#FFFFFF" font-family="Verdana,Verdana_MSFontService,sans-serif" font-weight="400" font-size="64" transform="matrix(1 0 0 1 914.643 1744)">se.exe</text><path d="M1301 1694 1389 1694 1389 1670 1437 1718 1389 1766 1389 1742 1301 1742Z" fill="#848B8E" fill-rule="evenodd"/><rect x="295" y="1608" width="1925" height="330" fill="#D9D9D9"/><text font-family="Verdana,Verdana_MSFontService,sans-serif" font-weight="400" font-size="83" transform="matrix(1 0 0 1 328.354 1706)">Run Simulation</text><rect x="1515" y="1669" width="608" height="209" fill="#848B8E"/><text fill="#FFFFFF" font-family="Verdana,Verdana_MSFontService,sans-serif" font-weight="400" font-size="64" transform="matrix(1 0 0 1 1628.86 1799)">.</text><text fill="#FFFFFF" font-family="Verdana,Verdana_MSFontService,sans-serif" font-weight="400" font-size="64" transform="matrix(1 0 0 1 1652.35 1799)">vtestreport</text><path d="M470 1729.67C470 1717.7 479.701 1708 491.667 1708L1312.33 1708C1324.3 1708 1334 1717.7 1334 1729.67L1334 1816.33C1334 1828.3 1324.3 1838 1312.33 1838L491.667 1838C479.701 1838 470 1828.3 470 1816.33Z" fill="#B70032" fill-rule="evenodd"/><text fill="#FFFFFF" font-family="Verdana,Verdana_MSFontService,sans-serif" font-weight="400" font-size="64" transform="matrix(1 0 0 1 624.793 1799)">canoe4sw</text><text fill="#FFFFFF" font-family="Verdana,Verdana_MSFontService,sans-serif" font-weight="400" font-size="64" transform="matrix(1 0 0 1 940.424 1799)">-</text><text fill="#FFFFFF" font-family="Verdana,Verdana_MSFontService,sans-serif" font-weight="400" font-size="64" transform="matrix(1 0 0 1 969.643 1799)">se.exe</text><path d="M1356 1749 1444 1749 1444 1725 1492 1773 1444 1821 1444 1797 1356 1797Z" fill="#848B8E" fill-rule="evenodd"/><rect x="350" y="1663" width="1925" height="330" fill="#D9D9D9"/><text font-family="Verdana,Verdana_MSFontService,sans-serif" font-weight="400" font-size="83" transform="matrix(1 0 0 1 383.354 1761)">Run Simulation</text><rect x="1570" y="1724" width="608" height="209" fill="#848B8E"/><text fill="#FFFFFF" font-family="Verdana,Verdana_MSFontService,sans-serif" font-weight="400" font-size="64" transform="matrix(1 0 0 1 1683.86 1854)">.</text><text fill="#FFFFFF" font-family="Verdana,Verdana_MSFontService,sans-serif" font-weight="400" font-size="64" transform="matrix(1 0 0 1 1707.35 1854)">vtestreport</text><path d="M525 1784.67C525 1772.7 534.701 1763 546.667 1763L1367.33 1763C1379.3 1763 1389 1772.7 1389 1784.67L1389 1871.33C1389 1883.3 1379.3 1893 1367.33 1893L546.667 1893C534.701 1893 525 1883.3 525 1871.33Z" fill="#B70032" fill-rule="evenodd"/><text fill="#FFFFFF" font-family="Verdana,Verdana_MSFontService,sans-serif" font-weight="400" font-size="64" transform="matrix(1 0 0 1 679.793 1854)">canoe4sw</text><text fill="#FFFFFF" font-family="Verdana,Verdana_MSFontService,sans-serif" font-weight="400" font-size="64" transform="matrix(1 0 0 1 995.424 1854)">-</text><text fill="#FFFFFF" font-family="Verdana,Verdana_MSFontService,sans-serif" font-weight="400" font-size="64" transform="matrix(1 0 0 1 1024.64 1854)">se.exe</text><path d="M1411 1804 1499 1804 1499 1780 1547 1828 1499 1876 1499 1852 1411 1852Z" fill="#848B8E" fill-rule="evenodd"/></g></svg>